<?xml version="1.0" standalone="no"?><!DOCTYPE svg PUBLIC "-//W3C//DTD SVG 1.1//EN" "http://www.w3.org/Graphics/SVG/1.1/DTD/svg11.dtd"><svg t="1585636741084" class="icon" viewBox="0 0 1104 1024" version="1.1" xmlns="http://www.w3.org/2000/svg" p-id="7272" xmlns:xlink="http://www.w3.org/1999/xlink" width="51.75" height="48"><defs><style type="text/css"></style></defs><path d="M1073.852632 1024H30.962526A31.016421 31.016421 0 0 1 0 992.956632c0-17.165474 13.877895-31.070316 30.962526-31.070316H1073.852632a31.016421 31.016421 0 0 1 0 62.113684zM537.088 697.990737s-225.603368 200.030316-264.973474 188.658526c-48.316632-10.940632 32.229053-322.101895 32.229053-322.101895L599.525053 53.921684a107.843368 107.843368 0 0 1 146.863158-39.666526l46.538105 26.704842a106.927158 106.927158 0 0 1 39.31621 146.405053L537.088 697.990737z m-180.385684-117.544421s-69.389474 183.080421-19.321263 193.212631c43.439158 15.629474 159.016421-113.259789 159.016421-113.259789l7.248842-12.530526-139.641263-80.060632-7.302737 12.638316z m235.277473-407.013053l-201.081263 347.863579 139.641263 80.060632L731.621053 253.493895l-139.641264-80.060632z m174.08-86.743579l-46.538105-26.677895a53.975579 53.975579 0 0 0-73.431579 19.806316L618.846316 126.922105l139.641263 80.060632 27.243789-47.077053a53.544421 53.544421 0 0 0-19.671579-73.216z" p-id="7273"></path></svg>