<?xml version="1.0" standalone="no"?><!DOCTYPE svg PUBLIC "-//W3C//DTD SVG 1.1//EN" "http://www.w3.org/Graphics/SVG/1.1/DTD/svg11.dtd"><svg t="1578302792827" class="icon" viewBox="0 0 1024 1024" version="1.1" xmlns="http://www.w3.org/2000/svg" p-id="3096" xmlns:xlink="http://www.w3.org/1999/xlink" width="48" height="48"><defs><style type="text/css"></style></defs><path d="M765.825 711.666l-112.522-111.32a179.095 179.095 0 0 0 2.075-201.65c-33.805-50.154-91.714-81.32-151.097-81.32a193.277 193.277 0 0 0-68.503 13.162l-0.655 0.273c-40.614 17.495-72.727 46.403-90.458 81.374-20.025 36.409-26.76 80.1-18.441 119.658A176.437 176.437 0 0 0 390.03 636.59a183.865 183.865 0 0 0 115.817 41.488 186.377 186.377 0 0 0 102.855-32.112L720.113 757.76l0.091 0.091c4.06 4.023 11.505 8.83 23.666 8.83 13.089 0 25.941-8.302 30.565-19.753 4.333-10.613 2.676-25.996-8.61-35.262zM607.646 569.8c-22.21 33.296-61.895 53.903-101.453 53.903a126.958 126.958 0 0 1-47.55-9.52c-53.904-22.192-84.014-80.828-72.909-137.9s61.804-98.303 120.459-98.303a123.79 123.79 0 0 1 87.18 36.409 122.334 122.334 0 0 1 14.273 155.411z" p-id="3097"></path><path d="M908.329 241.154L524.743 64.171a35.553 35.553 0 0 0-25.486 0L115.744 245.887a29.255 29.255 0 0 0-17.586 26.888v112.23c-1.583 96.484 23.976 192.968 70.324 278.238S283.534 821.312 365.09 875.069l108.68 71.143a81.083 81.083 0 0 0 43.145 12.634h1.602c15.984 0 30.365-4.733 44.747-14.217l103.874-69.56a281.55 281.55 0 0 0 46.33-33.204c6.39-4.734 11.178-12.634 11.178-20.553a37.501 37.501 0 0 0-7.973-22.119 30.71 30.71 0 0 0-43.254-3.204c-12.743 9.485-27.161 20.553-41.543 30.038L528.02 895.622a23.884 23.884 0 0 1-20.771 0l-108.663-69.559C248.363 728.05 158.834 563.646 158.834 385.006V290.16L512 122.68l351.582 164.313v102.764c1.602 75.876-15.983 153.336-49.534 222.895-3.186 7.901-4.788 15.802-1.602 23.666s7.992 14.218 15.984 17.385a33.296 33.296 0 0 0 41.542-14.235 588.004 588.004 0 0 0 55.942-249.765V268.06a29.127 29.127 0 0 0-17.585-26.906z" p-id="3098"></path></svg>