<?xml version="1.0" standalone="no"?><!DOCTYPE svg PUBLIC "-//W3C//DTD SVG 1.1//EN" "http://www.w3.org/Graphics/SVG/1.1/DTD/svg11.dtd"><svg t="1563774977163" class="icon" viewBox="0 0 1024 1024" version="1.1" xmlns="http://www.w3.org/2000/svg" p-id="3497" xmlns:xlink="http://www.w3.org/1999/xlink" width="128" height="128"><defs><style type="text/css"></style></defs><path d="M933.985 528.904c-8.38 15.942-27.767 22.181-44.043 14.172-17.197-8.462-23.563-28.35-14.542-45.437 8.641-16.367 27.296-22.336 43.99-14.074 17.32 8.571 23.625 28.159 14.595 45.339z" p-id="3498"></path><path d="M909.982 635.021l-0.042-0.014c4.364-10.849-0.198-23.424-10.818-28.831-11.234-5.72-24.977-1.25-30.697 9.984a22.762 22.762 0 0 0-1.83 5.01l-0.108-0.035a371.29 371.29 0 0 1-23.963 59.128c-92.556 181.78-314.949 254.11-496.728 161.554-181.78-92.556-254.11-314.948-161.554-496.728C276.798 163.31 499.19 90.979 680.97 183.535c91.622 46.651 155.42 126.292 184.333 217.086l0.032-0.007c1.392 6.49 5.581 12.324 11.957 15.57 11.234 5.72 24.977 1.25 30.697-9.984 2.616-5.138 3.078-10.795 1.759-15.976l0.12-0.028C877.905 286.76 805.78 195.856 701.683 142.854 497.436 38.859 247.556 120.129 143.56 324.376s-22.725 454.127 181.521 558.122 454.127 22.725 558.122-181.521a417.444 417.444 0 0 0 26.779-65.956z" p-id="3499"></path><path d="M511.357 510.008c0 14.658-10.322 26.54-23.056 26.54-12.733 0-23.056-11.882-23.056-26.54v-298.58c0-14.658 10.322-26.54 23.056-26.54 12.733 0 23.056 11.882 23.056 26.54v298.58z" p-id="3500"></path><path d="M769.135 490.907c14.657 0 26.54 10.322 26.54 23.056 0 12.733-11.882 23.056-26.54 23.056H492.568c-14.658 0-26.54-10.322-26.54-23.056 0-12.733 11.882-23.056 26.54-23.056h276.567z" p-id="3501"></path></svg>