<?xml version="1.0" standalone="no"?><!DOCTYPE svg PUBLIC "-//W3C//DTD SVG 1.1//EN" "http://www.w3.org/Graphics/SVG/1.1/DTD/svg11.dtd"><svg t="1557473573381" class="icon" style="" viewBox="0 0 1024 1024" version="1.1" xmlns="http://www.w3.org/2000/svg" p-id="2936" xmlns:xlink="http://www.w3.org/1999/xlink" width="128" height="128"><defs><style type="text/css"></style></defs><path d="M195.830315 961.108211c-35.579527 0-64.61895-29.04064-64.61895-64.61895V182.798152c0-35.770488 29.039423-64.61895 64.61895-64.61895h78.849788a21.503161 21.503161 0 0 0 21.53965-21.539651 21.504377 21.504377 0 0 0-21.53965-21.53965H195.830315C136.403796 75.098685 88.132065 123.370417 88.132065 182.795719v713.500149c0 59.425303 48.271731 107.69825 107.69825 107.69825h187.316747v-42.887123l-187.316747 0.001216zM828.170901 75.101118h-78.079863a21.504377 21.504377 0 0 0-21.53965 21.538433 21.504377 21.504377 0 0 0 21.53965 21.539651h78.079863c35.580743 0 64.620167 29.039423 64.620167 64.61895v713.691109c0 35.579527-29.039423 64.620167-64.620167 64.620167H640.854154v42.885906h187.316747c59.426519 0 107.699467-48.271731 107.699467-107.506073V182.799368c0-59.427735-48.272948-107.69825-107.699467-107.69825z m-104.620984 125.966024H300.451299c-26.733298 0-48.271731 21.53965-48.271732 48.272948 0 26.730865 21.53965 48.271731 48.271732 48.271731h423.098618c26.539904 0 48.272948-21.53965 48.272948-48.271731 0-26.733298-21.53965-48.272948-48.272948-48.272948z m-82.695763-104.813161c0-42.502769-34.425248-76.9268-76.925584-76.9268h-103.852275c-42.501552 0-76.9268 34.424032-76.9268 76.9268v109.621238h257.705876V96.253981h-0.001217z m-128.853546 68.273964c-28.078538 0-50.964644-22.886106-50.964644-50.964643 0-28.079754 22.886106-50.964644 50.964644-50.964644s50.964644 22.88489 50.964644 50.964644c0.001216 28.078538-22.886106 50.964644-50.964644 50.964643z m179.43262 615.225876h-120.006101v-61.158546l119.429569-0.576531c10.769217-0.771141 19.423269-5.000254 25.963373-12.500028 6.538888-7.499773 10.192686-16.732789 10.96261-27.50079-0.769925-10.386079-4.423723-19.038915-10.577039-25.577802-6.154533-6.731065-14.808585-10.384863-25.579019-11.346965h-91.927563l96.927817-134.430331c8.269698-10.770433 12.501244-22.308359 12.501244-34.425248-1.346456-8.846229-3.269444-15.769471-5.962356-21.347473-2.691696-5.384608-5.962356-9.616154-10.000509-12.500028-4.038152-2.883873-8.654052-5.000254-13.847699-6.34671-5.193648-1.346456-10.96261-2.116381-17.115928-2.499519-10.001725 1.154279-19.038915 4.6159-26.926691 10.000509-7.882911 5.384608-14.421799 11.731319-19.423269 18.846737l-104.428807 151.929397-95.006045-150.585373c-5.000254-7.116635-11.539142-13.654306-19.42327-19.616663-7.885344-5.96114-16.924966-9.422761-26.925474-10.384862-17.115927 2.116381-28.847246 6.731065-35.00178 14.03866-6.34671 7.308812-10.384863 16.732789-12.500027 28.462892-0.384354 9.2318 1.346456 17.693675 5.000254 25.386842 3.653798 7.69195 7.69195 14.038661 11.923496 19.037698l83.851259 124.43104h-90.197969c-11.346965 0.769925-20.001017 4.6159-25.962157 11.346964-5.962356 6.729848-9.616154 15.191723-10.96261 25.577803 1.346456 10.769217 4.808077 19.80884 10.96261 26.925475 5.96114 7.116635 14.615192 10.96261 25.962157 11.924712l120.583848 0.576531v62.503786h-120.583848c-11.346965 0.769925-20.001017 4.6159-25.962157 11.346964-5.962356 6.731065-9.616154 15.19294-10.96261 25.577803 1.346456 10.384863 4.808077 20.001017 10.96261 28.462891 5.96114 8.461875 14.615192 13.269952 25.962157 14.038661h120.583848v91.735386c0.769925 17.884636 6.34671 31.347981 16.540612 40.00325 10.192686 8.652836 24.423523 13.076559 42.885907 13.076558 37.116944 0 56.540213-17.692459 58.080063-53.079808v-92.889665l120.0061 0.577748c10.769217-0.769925 19.424485-4.999038 25.577803-12.11689 6.15575-7.308812 9.808331-16.346002 10.577039-27.116435-0.768709-10.384863-4.422507-19.423269-10.577039-26.924259-5.959924-7.885344-14.615192-11.923496-25.384409-12.884381z" p-id="2937"></path></svg>