<?xml version="1.0" standalone="no"?><!DOCTYPE svg PUBLIC "-//W3C//DTD SVG 1.1//EN" "http://www.w3.org/Graphics/SVG/1.1/DTD/svg11.dtd"><svg t="1563325757602" class="icon" viewBox="0 0 1024 1024" version="1.1" xmlns="http://www.w3.org/2000/svg" p-id="17133" xmlns:xlink="http://www.w3.org/1999/xlink" width="48" height="48"><defs><style type="text/css"></style></defs><path d="M694.897778 124.416a31.288889 31.288889 0 1 1 58.823111-21.276444l49.208889 136.362666c11.320889 31.288889-27.534222 56.206222-51.313778 32.995556A338.488889 338.488889 0 1 0 853.333333 514.332444a31.288889 31.288889 0 0 1 62.577778 0 401.066667 401.066667 0 1 1-207.018667-351.118222l-13.994666-38.855111zM517.575111 341.333333a28.444444 28.444444 0 1 1 56.888889 0v204.8a28.444444 28.444444 0 0 1-11.036444 22.528l-196.152889 151.836445a28.444444 28.444444 0 1 1-34.816-44.999111l185.116444-143.303111V341.333333z" p-id="17134"></path></svg>