<?xml version="1.0" standalone="no"?><!DOCTYPE svg PUBLIC "-//W3C//DTD SVG 1.1//EN" "http://www.w3.org/Graphics/SVG/1.1/DTD/svg11.dtd"><svg t="1563325884767" class="icon" viewBox="0 0 1024 1024" version="1.1" xmlns="http://www.w3.org/2000/svg" p-id="19042" xmlns:xlink="http://www.w3.org/1999/xlink" width="48" height="48"><defs><style type="text/css"></style></defs><path d="M651.69608555 389.53353394c104.26800721 0 189.94478092-28.27962006 199.71172489-64.41469027a26.18483343 26.18483343 0 0 0 0.99502423-6.91279571v-124.77073036C852.40283467 152.45605341 762.53648635 119.22749984 651.69608555 119.22749984c-110.84039941 0-200.70674774 33.22855357-200.70674775 74.20781776V318.23223284c0 2.33045058 0.36658701 4.63471489 0.99502423 6.88661083 9.74075771 36.13507022 95.4175328 64.41469028 199.71172352 64.41469027z m-128.59371661-223.85414009c34.64253457-11.96646876 80.30888342-18.53886235 128.56753172-18.53886234 48.28483316 0 93.95118203 6.57239359 128.56753309 18.53886234 15.31812707 5.289337 27.88684817 11.46895732 36.34454794 17.9104265 6.5462087 4.97511839 8.71954998 8.64099533 9.11232186 9.84549725-0.39277188 1.15213216-2.59229804 4.87037885-9.11232186 9.81931236-8.45770114 6.44146916-21.02642085 12.62108948-36.34454794 17.91042512-34.64253457 11.96646876-80.30888342 18.53886235-128.56753309 18.53886235s-93.92499714-6.57239359-128.56753172-18.53886235c-15.31812707-5.289337-27.86066329-11.46895732-36.34454791-17.91042512-6.52002383-4.97511839-8.71954998-8.64099533-9.0599521-9.81931236 0.3404035-1.17831705 2.53992828-4.89656373 9.08613698-9.84549725 8.45770114-6.44146916 21.00023598-12.62108948 36.31836303-17.9104265z m128.56753172 365.01657781c104.29419071 0 189.9709658-28.27962006 199.73790978-64.44087518 0.60225095-2.27808082 0.96883934-4.58234651 0.96883934-6.9127971v-124.79691524c0 28.80331636-44.40947716 49.04419344-109.19075583 61.3772492a495.65271125 495.65271125 0 0 1-91.51599329 8.19585368c-32.99288962 0-64.0481019-2.98507131-91.48980703-8.19585368-64.80746218-12.30687226-109.21694071-32.57393283-109.21694071-61.3772492v48.96563879a507.59299511 507.59299511 0 0 0-78.63305358-5.91777284c-110.84039941 0-200.70674774 33.22855357-200.70674912 74.20781775v124.79691663a26.18483343 26.18483343 0 0 0 0.99502422 6.91279572c9.76694259 36.13507022 95.4175328 64.41469028 199.7117249 64.41469028a527.28398963 527.28398963 0 0 0 89.94490161-7.54123293c5.83921821-1.04739399 11.52132709-2.17334128 16.99395692-3.4040281 51.13898005-11.49514221 86.69798283-30.95047276 92.77286499-53.46942925 0.62843584-2.27808082 0.99502422-4.58234651 0.99502422-6.91279572v16.70592319c0 23.25213188-28.96042567 40.95307932-74.20781776 53.3646911a495.54797171 495.54797171 0 0 1-47.89206129 10.21208425c-24.14241658 3.84917111-50.66765214 6.02251101-78.63305358 6.0225124-32.99288962 0-64.02191701-2.98507131-91.4898084-8.22203856C216.03282876 642.40047087 171.59716533 622.13340892 171.59716533 593.33009254v124.79691526c0 2.33045058 0.39277188 4.63471489 0.99502423 6.91279709 9.76694259 36.13507022 95.4175328 64.41469028 199.71172489 64.41469028 39.53909831 0 76.38115904-4.05864881 107.41018645-11.07618544 50.90331611-11.52132709 86.25284116-30.89810299 92.32772196-53.33850484 0.60225095-2.27808082 0.99502422-4.58234651 0.99502422-6.91279709v16.70592456c0 23.14739235-28.72476172 40.79597001-73.65793656 53.20758181-10.94526101 3.01125619-22.85936001 5.76066355-35.55900415 8.14348251a494.36965467 494.36965467 0 0 1-91.51599192 8.22203718c-32.99288962 0-64.02191701-2.98507131-91.4898084-8.22203718C216.03282876 783.87712442 171.59716533 763.63624873 171.59716533 734.83293236v124.79691525c0 2.30426571 0.36658701 4.63471489 0.96883934 6.91279708 9.76694259 36.13507022 95.44371769 64.41469028 199.73790978 64.41468892 104.26800721 0 189.94478092-28.27962006 199.71172352-64.41468892 0.62843584-2.27808082 0.99502422-4.58234651 0.99502423-6.91279708v-52.39585176c24.14241658 3.66587693 50.72002191 5.6821089 78.63305358 5.6821089 104.29419071 0 189.94478092-28.27962006 199.71172489-64.41469028a26.18483343 26.18483343 0 0 0 0.99502423-6.91279571v-124.79691524c0 28.80331636-44.43566205 49.04419344-109.21694071 61.3510643a494.36965467 494.36965467 0 0 1-91.48980841 8.22203718c-27.96540144 0-54.49063837-2.17334128-78.63305358-5.99632613v-14.27073444c24.14241658 3.66587693 50.72002191 5.6821089 78.63305358 5.68210888 104.29419071 0 189.94478092-28.27962006 199.71172489-64.41469028 0.60225095-2.27808082 0.96883934-4.58234651 0.96883935-6.9127957v-124.79691663c0 28.80331636-44.40947716 49.07037833-109.19075583 61.37725058-27.4940749 5.23696723-58.49691744 8.22203717-91.48980841 8.22203717-27.96540144 0-54.49063837-2.17334128-78.65923847-5.99632751v-14.27073307c24.22097123 3.66587693 50.79857657 5.6821089 78.71160824 5.6821089z m-150.7722696-51.13898007c-9.95023679 3.43021297-20.81694316 6.41528428-32.39063864 8.92902767a347.52510806 347.52510806 0 0 1-17.5438395 3.40402809 479.70614695 479.70614695 0 0 1-78.63305358 6.20580657c-48.25864828 0-93.92499714-6.57239359-128.56753309-18.53886233-15.31812707-5.289337-27.86066329-11.46895732-36.34454794-17.9104265-6.52002383-4.97511839-8.71954998-8.64099533-9.08613698-9.81931236 0.36658701-1.17831705 2.56611316-4.89656373 9.08613698-9.84549726 8.45770114-6.41528428 21.02642085-12.62108948 36.34454794-17.91042649 34.64253457-11.96646876 80.30888342-18.53886235 128.56753309-18.53886095 27.59881444 0 54.33352907 2.14715638 78.63305358 6.23199009 18.22464373 3.06362596 35.08767622 7.17464455 49.93447814 12.30687086 15.29194219 5.289337 27.86066329 11.49514221 36.31836303 17.91042649 6.5462087 4.97511839 8.74573486 8.66718021 9.11232187 9.84549726-0.36658701 1.15213216-2.56611316 4.84419396-9.08613699 9.81931236-8.45770114 6.41528428-21.02642085 12.62108948-36.34454791 17.9104265z" p-id="19043"></path></svg>