<?xml version="1.0" standalone="no"?><!DOCTYPE svg PUBLIC "-//W3C//DTD SVG 1.1//EN" "http://www.w3.org/Graphics/SVG/1.1/DTD/svg11.dtd"><svg t="1563787333887" class="icon" viewBox="0 0 1024 1024" version="1.1" xmlns="http://www.w3.org/2000/svg" p-id="7902" xmlns:xlink="http://www.w3.org/1999/xlink" width="128" height="128"><defs><style type="text/css"></style></defs><path d="M460.880403 606.435556c4.475259 2.23763 10.657185 3.830519 15.17037 3.223703l225.886815 2.844445a35.65037 35.65037 0 0 0 35.536593-35.650371l0.379259-20.783407a36.143407 36.143407 0 0 0-20.517926-32.274963 38.608593 38.608593 0 0 0-16.308148-3.792593l-168.77037-2.806518 1.175703-168.163556a36.143407 36.143407 0 0 0-20.48-32.312889 38.608593 38.608593 0 0 0-16.308148-3.792592l-20.745481-0.341334a35.65037 35.65037 0 0 0-35.498667 35.650371l-1.137778 225.355852c0.682667 12.894815 9.216 26.81363 21.617778 32.881777zM993.891366 429.321481c-32.57837-151.665778-190.501926-308.337778-343.381333-342.167703A466.678519 466.678519 0 0 0 549.020255 75.851852h-12.515556C314.638033 82.10963 125.387662 252.586667 99.029144 474.415407l-1.251556 5.006223H41.419662a19.759407 19.759407 0 0 0-18.773333 12.515555 36.788148 36.788148 0 0 0 0 32.616296l100.238222 117.797926c11.301926 12.515556 26.320593 20.024889 41.339259 20.024889 15.056593 0 30.113185-7.509333 41.377186-20.024889l96.521481-115.294814 1.251556-1.289482 2.503111-2.503111 1.251555-1.251556c6.257778-11.264 3.792593-23.817481 0-31.326814-5.006222-8.760889-12.515556-13.767111-20.062815-13.767111H225.66381l1.251556-7.54726c27.572148-152.879407 154.168889-263.205926 309.551407-268.174222h17.559704c175.483259 2.503111 320.853333 147.873185 323.356444 323.318519a327.566222 327.566222 0 0 1-94.01837 234.382222c-62.65363 62.65363-145.370074 97.773037-234.382222 97.773037h-28.823704a33.185185 33.185185 0 0 0-32.540444 32.57837v63.905185c0 17.559704 15.018667 32.616296 32.57837 32.616297h31.326815c137.860741 0 266.960593-61.44 353.431704-167.973926 86.471111-109.037037 119.087407-249.400889 88.974222-388.513185z" p-id="7903"></path></svg>