<?xml version="1.0" standalone="no"?><!DOCTYPE svg PUBLIC "-//W3C//DTD SVG 1.1//EN" "http://www.w3.org/Graphics/SVG/1.1/DTD/svg11.dtd"><svg t="1552211533557" class="icon" style="" viewBox="0 0 1024 1024" version="1.1" xmlns="http://www.w3.org/2000/svg" p-id="830" xmlns:xlink="http://www.w3.org/1999/xlink" width="200" height="200"><defs><style type="text/css"></style></defs><path d="M749.1 565v235.5c0 11-9 20-20 20h-480c-11 0-20-9-20-20v-577c0-11 9-20 20-20h480c11 0 20 9 20 20V235h50v-11.5c0-38.7-31.3-70-70-70h-480c-38.7 0-70 31.3-70 70v577c0 38.7 31.3 70 70 70h480c38.7 0 70-31.3 70-70V565h-50z" fill="#1296db" p-id="831"></path><path d="M774.2 235.5m-25 0a25 25 0 1 0 50 0 25 25 0 1 0-50 0Z" fill="#1296db" p-id="832"></path><path d="M774.2 565.5m-25 0a25 25 0 1 0 50 0 25 25 0 1 0-50 0Z" fill="#1296db" p-id="833"></path><path d="M768.1 347.1c4.5 0 12.9 1.2 19.8 8.8l0.2 0.3 0.4 0.5c9.4 10.8 8.3 27.2-2.4 36.7L442.9 685.1l-48.5 3.8 12.7-43.1 343.8-292.3c6.2-5.3 12.8-6.4 17.2-6.4m0-50c-17.6 0-35.2 6-49.6 18.3l-349.4 297c-3.8 3.2-6.6 7.5-8 12.3l-24.7 84.2c-2.4 8.1-0.6 16.8 4.7 23.3 4.9 6 12.2 9.5 19.8 9.5 0.7 0 1.3 0 2-0.1l91.7-7.1c5.4-0.4 10.5-2.5 14.6-6l349.6-297.2c31.7-27.6 35.1-75.6 7.5-107.3l-0.3-0.4c-15.2-17.6-36.5-26.5-57.9-26.5zM501.2 333.5h-176c-13.8 0-25-11.2-25-25s11.2-25 25-25h176c13.8 0 25 11.2 25 25s-11.2 25-25 25zM411.2 447.5h-86c-13.8 0-25-11.2-25-25s11.2-25 25-25h86c13.8 0 25 11.2 25 25s-11.2 25-25 25z" fill="#1296db" p-id="834"></path></svg>