<?xml version="1.0" standalone="no"?><!DOCTYPE svg PUBLIC "-//W3C//DTD SVG 1.1//EN" "http://www.w3.org/Graphics/SVG/1.1/DTD/svg11.dtd"><svg t="1558075042471" class="icon" style="" viewBox="0 0 1024 1024" version="1.1" xmlns="http://www.w3.org/2000/svg" p-id="7902" xmlns:xlink="http://www.w3.org/1999/xlink" width="128" height="128"><defs><style type="text/css"></style></defs><path d="M891.296 189.184c-21.216 2.576-43.296 3.952-65.968 3.952-152.784 0-278.608-62-295.008-141.712l-1.824 0L528.496 33.712C528.496 23.936 521.12 16 512 16c-9.12 0-16.496 7.936-16.496 17.712l0 17.712-1.84 0c-16.4 79.712-142.208 141.712-295.008 141.712-22.672 0-44.752-1.376-65.968-3.952l0 35.472c0.384 0.048 0.784 0.096 1.184 0.144-0.784 18.624-1.184 37.6-1.184 56.912C132.704 682.832 302.512 1008 512 1008c209.488 0 379.296-325.168 379.296-726.288 0-19.328-0.4-38.288-1.168-56.912 0.384-0.048 0.784-0.096 1.168-0.144L891.296 189.184zM541.168 832.944l-58.352 0 0-58.352 58.352 0L541.168 832.944zM541.168 716.24l-58.352 0L482.816 307.76l58.352 0L541.168 716.24z" p-id="7903"></path></svg>