<?xml version="1.0" standalone="no"?><!DOCTYPE svg PUBLIC "-//W3C//DTD SVG 1.1//EN" "http://www.w3.org/Graphics/SVG/1.1/DTD/svg11.dtd"><svg t="1563849931895" class="icon" viewBox="0 0 1024 1024" version="1.1" xmlns="http://www.w3.org/2000/svg" p-id="13295" width="200" height="200" xmlns:xlink="http://www.w3.org/1999/xlink"><defs><style type="text/css"></style></defs><path d="M182.058667 618.922667l259.370666 259.370666 439.466667-439.509333-259.328-259.370667-439.466667 439.509334z m-21.888-39.296l425.002666-424.96a66.773333 66.773333 0 0 1 94.464 0l236.117334 236.074666a66.773333 66.773333 0 0 1 0 94.421334l-425.002667 425.002666a66.773333 66.773333 0 0 1-94.464 0L160.170667 674.133333a66.773333 66.773333 0 0 1 0-94.464z m77.952-16.512l115.669333 115.669333a26.709333 26.709333 0 1 0 37.802667-37.76l-115.712-115.712-37.76 37.802667z m70.826666-70.826667l68.48 68.437333a26.709333 26.709333 0 1 0 37.76-37.76l-68.48-68.48-37.76 37.802667z m141.653334-141.653333l68.48 68.437333a26.709333 26.709333 0 0 0 37.76-37.76l-68.437334-68.48-37.802666 37.76z m-70.826667 70.826666l115.712 115.626667a26.709333 26.709333 0 1 0 37.76-37.717333L417.536 383.658667l-37.76 37.76z m141.653333-141.653333l115.712 115.626667a26.709333 26.709333 0 1 0 37.76-37.76l-115.669333-115.669334-37.802667 37.76z" p-id="13296" fill=""></path></svg>