<?xml version="1.0" standalone="no"?><!DOCTYPE svg PUBLIC "-//W3C//DTD SVG 1.1//EN" "http://www.w3.org/Graphics/SVG/1.1/DTD/svg11.dtd"><svg t="1563847629053" class="icon" viewBox="0 0 1024 1024" version="1.1" xmlns="http://www.w3.org/2000/svg" p-id="6846" xmlns:xlink="http://www.w3.org/1999/xlink" width="200" height="200"><defs><style type="text/css"></style></defs><path d="M502.918 3.027c-170.433 0-308.803 138.371-308.803 308.803 0 139.336 92.48 257.241 219.356 295.628v361.734c0 24.683 20.042 44.722 44.726 44.722h89.444c24.687-0.003 44.726-20.039 44.726-44.722V607.459c126.876-38.387 219.356-156.292 219.356-295.628C811.721 141.398 673.351 3.027 502.918 3.027z m-85.867 294.331c-42.12 0-76.32-34.196-76.32-76.32 0-42.12 34.2-76.32 76.32-76.32 42.124 0 76.32 34.2 76.32 76.32 0 42.124-34.196 76.32-76.32 76.32z" fill="" p-id="6847"></path></svg>