<?xml version="1.0" standalone="no"?><!DOCTYPE svg PUBLIC "-//W3C//DTD SVG 1.1//EN" "http://www.w3.org/Graphics/SVG/1.1/DTD/svg11.dtd"><svg t="1602208828731" class="icon" viewBox="0 0 1024 1024" version="1.1" xmlns="http://www.w3.org/2000/svg" p-id="2489" xmlns:xlink="http://www.w3.org/1999/xlink" width="200" height="200"><defs><style type="text/css"></style></defs><path d="M715.648 180.352c112.469333 112.469333 112.469333 294.826667 0 407.296L673.92 629.333333h220.821333l87.594667 277.333334H41.664l87.594667-277.333334h220.8l-41.706667-41.685333c-112.469333-112.469333-112.469333-294.826667 0-407.296 112.469333-112.469333 294.826667-112.469333 407.296 0zM414.037333 693.333333H176.170667l-47.168 149.333334h765.994666l-47.146666-149.333334H609.92L512 791.296 414.037333 693.333333z m-60.437333-467.733333c-87.466667 87.466667-87.466667 229.333333 0 316.8L512 700.778667l158.4-158.378667c87.466667-87.466667 87.466667-229.333333 0-316.8s-229.333333-87.466667-316.8 0zM512 266.666667a117.333333 117.333333 0 1 1 0 234.666666 117.333333 117.333333 0 0 1 0-234.666666z m0 64a53.333333 53.333333 0 1 0 0 106.666666 53.333333 53.333333 0 0 0 0-106.666666z" p-id="2490"></path></svg>