<?xml version="1.0" standalone="no"?><!DOCTYPE svg PUBLIC "-//W3C//DTD SVG 1.1//EN" "http://www.w3.org/Graphics/SVG/1.1/DTD/svg11.dtd"><svg t="1563787533004" class="icon" viewBox="0 0 1024 1024" version="1.1" xmlns="http://www.w3.org/2000/svg" p-id="12436" xmlns:xlink="http://www.w3.org/1999/xlink" width="128" height="128"><defs><style type="text/css"></style></defs><path d="M895.205659 109.945041 128.795365 109.945041c-26.455535 0-47.900963 21.445428-47.900963 47.89994l0 489.650993c0 26.453489 21.446451 47.89994 47.900963 47.89994l159.246911 0c15.662725 2.64934 37.778418 12.252045 49.386804 44.175105l0 145.299247c0 0 1.597381 22.354124 15.966647 27.14422 0 0 20.756743 9.580193 39.917128-12.773931l183.618994-188.409091c0 0 15.419178-12.727882 65.433268-15.434527l252.841565 0c26.453489 0 47.89994-21.446451 47.89994-47.89994L943.106622 157.844981C943.105598 131.389446 921.66017 109.945041 895.205659 109.945041zM303.517735 455.5575c-28.007891 0-50.711985-22.704095-50.711985-50.711985s22.704095-50.711985 50.711985-50.711985c28.006867 0 50.711985 22.704095 50.711985 50.711985S331.524602 455.5575 303.517735 455.5575zM517.634324 455.5575c-28.007891 0-50.711985-22.704095-50.711985-50.711985s22.704095-50.711985 50.711985-50.711985c28.006867 0 50.711985 22.704095 50.711985 50.711985S545.641191 455.5575 517.634324 455.5575zM731.751936 455.5575c-28.007891 0-50.711985-22.704095-50.711985-50.711985s22.704095-50.711985 50.711985-50.711985c28.006867 0 50.711985 22.704095 50.711985 50.711985S759.75778 455.5575 731.751936 455.5575z" p-id="12437"></path></svg>