<?xml version="1.0" standalone="no"?><!DOCTYPE svg PUBLIC "-//W3C//DTD SVG 1.1//EN" "http://www.w3.org/Graphics/SVG/1.1/DTD/svg11.dtd"><svg t="1563594385734" class="icon" viewBox="0 0 1024 1024" version="1.1" xmlns="http://www.w3.org/2000/svg" p-id="36894" xmlns:xlink="http://www.w3.org/1999/xlink" width="48" height="48"><defs><style type="text/css"></style></defs><path d="M699.4464 444.9408c24.1632-5.20213333 46.41066667-25.28106667 50.05013333-69.80906667 2.9856-36.45333333-6.31786667-55.21813333-20.02773333-64.7872 38.0864-156.1376-66.93333333-186.71466667-66.93333333-186.71466666s-78.44373333-133.95626667-231.536-39.94666667c-19.47306667 11.94773333-49.7376 34.85546667-67.77813334 58.50666667-28.9504 31.0176-48.6752 81.4144-51.75146666 163.05386666-18.70293333 7.1872-33.37706667 25.35466667-29.73866667 69.888 3.82506667 46.55893333 27.95733333 66.3712 53.35573333 70.41493334 34.2752 84.02026667 101.9648 153.25226667 182.0672 153.25226666 80.27946667-0.00106667 148.09706667-69.568 182.29226667-153.85813333zM517.15413333 559.61066667c-92.61973333 0-167.19786667-126.56-167.19786666-231.36106667 0-14.36906667 0.46826667-27.67786667 1.34293333-40.02666667 135.46026667 5.96373333 215.60426667-48.70506667 259.19466667-96.10666666 41.3504 41.47626667 62.83733333 93.87413333 73.82293333 132.75306666 0 1.1264 0.0256 2.23466667 0.0256 3.38026667 0 104.8-74.57813333 231.36106667-167.18826667 231.36106667zM464.09706667 718.0608l10.72106666-44.65493333a26.10666667 26.10666667 0 0 1 7.4848-12.93973334 61.632 61.632 0 0 1-3.2288-2.4672l-95.77813333-79.82826666-58.28906667 13.72053333C226.29333333 615.2608 156.7424 699.15093333 156.7424 795.392v126.35733333c0 24.87786667 21.97546667 44.70826667 48.28906667 44.70826667h246.75306666l37.6224-215.8496c-16.90133333-0.2368-29.28-15.9552-25.30986666-32.5472zM705.81226667 591.8912l-57.4912-13.72053333-95.69066667 79.82826666c-1.0592 0.86186667-2.09173333 1.69493333-3.18933333 2.4672 3.6 3.3888 6.28693333 7.8048 7.5104 12.93973334l10.7264 44.65493333c3.97866667 16.59306667-8.40106667 32.3104-25.2832 32.5472l37.61493333 215.8496h246.75733333c26.31146667 0 46.3264-19.8304 46.3264-44.70826667V795.392c-0.00213333-96.24106667-68.57066667-180.1312-167.28106666-203.5008z" p-id="36895"></path></svg>