<?xml version="1.0" standalone="no"?><!DOCTYPE svg PUBLIC "-//W3C//DTD SVG 1.1//EN" "http://www.w3.org/Graphics/SVG/1.1/DTD/svg11.dtd"><svg t="1563591634023" class="icon" viewBox="0 0 1024 1024" version="1.1" xmlns="http://www.w3.org/2000/svg" p-id="13027" xmlns:xlink="http://www.w3.org/1999/xlink" width="48" height="48"><defs><style type="text/css"></style></defs><path d="M864 896v112c0 8.8-7.2 16-16 16H176c-8.8 0-16-7.2-16-16v-112c0-70.72 57.28-128 128-128h112l64 32 48-16 48 16 64-32h112c70.72 0 128 57.28 128 128z" fill="#A0D468" p-id="13028"></path><path d="M736 768h-64c70.72 0 128 57.28 128 128v112c0 8.8-7.2 16-16 16h64c8.8 0 16-7.2 16-16v-112c0-70.72-57.28-128-128-128z" fill="#8CC152" p-id="13029"></path><path d="M624 676.32V768l-64 32-48-16-48 16-64-32v-91.68c33.44 17.6 71.52 27.68 112 27.68s78.56-10.08 112-27.68z" fill="#E6E9ED" p-id="13030"></path><path d="M752 352v112c0 92-51.84 172-128 212.32-33.44 17.6-71.52 27.68-112 27.68s-78.56-10.08-112-27.68c-76.16-40.32-128-120.32-128-212.32v-112l64-64s80 48 176 48 176-48 176-48l64 64z" fill="#EAC6BB" p-id="13031"></path><path d="M688 288v176c0 92-51.84 172-128 212.32a239.52 239.52 0 0 1-80 25.504 239.76 239.76 0 0 0 144-25.504c76.16-40.32 128-120.32 128-212.32v-112l-64-64z" fill="#D3B1A9" p-id="13032"></path><path d="M752 464v-112l-64-64s-80 48-176 48-176-48-176-48l-64 64v112l-45.6-23.84 3.184-28.32-16.96-22.896 8.16-27.36L208 336.16l12.8-25.6-8.16-27.2 16.96-22.88-3.36-28.336 20.816-19.664 1.6-28.336 23.84-15.84 6.56-27.664 26.24-11.36 11.36-26.08 27.664-6.56 15.68-23.84 28.48-1.6 19.52-20.8 28.32 3.36 22.88-17.12 27.36 8.16L512 32.16l25.44 12.64 27.36-8.16 22.896 17.12 28.32-3.36 19.52 20.8 28.48 1.6 15.68 23.84 27.664 6.56 11.36 26.24 26.24 11.2 6.56 27.84 23.84 15.664 1.6 28.336 20.64 19.664-3.2 28.336 16.96 22.88-8.16 27.36 12.8 25.44-12.8 25.44 8.16 27.2-16.96 23.04 3.184 28.16L752 464z" fill="#965353" p-id="13033"></path><path d="M803.2 361.6l12.8-25.44-12.8-25.44 8.16-27.36-16.96-22.88 3.2-28.32-20.64-19.68-1.6-28.32-23.84-15.68-6.56-27.84-26.24-11.2-11.36-26.24-27.68-6.56-15.68-23.84-28.48-1.6-19.52-20.8-28.32 3.36-22.88-17.12-27.36 8.16L512 32.16l-10.336 5.136L523.68 53.76l28.32-3.36 19.52 20.8 28.48 1.6 15.68 23.84 27.68 6.56 11.36 26.24 26.24 11.2 6.56 27.84 23.84 15.68 1.6 28.32 20.64 19.68-3.2 28.32 16.96 22.88-8.16 27.36 12.8 25.44V464l45.6-24-3.2-28.16 16.96-23.04z" fill="#844646" p-id="13034"></path><path d="M512.48 848.032c-8.848 0-16.08-7.152-16.08-16s7.072-16 15.904-16h0.176a16 16 0 1 1 0 32z" fill="#E6E9ED" p-id="13035"></path></svg>