<?xml version="1.0" standalone="no"?><!DOCTYPE svg PUBLIC "-//W3C//DTD SVG 1.1//EN" "http://www.w3.org/Graphics/SVG/1.1/DTD/svg11.dtd"><svg t="1563260762675" class="icon" viewBox="0 0 1024 1024" version="1.1" xmlns="http://www.w3.org/2000/svg" p-id="4324" xmlns:xlink="http://www.w3.org/1999/xlink" width="48" height="48"><defs><style type="text/css"></style></defs><path d="M384 512c96 0 172.8-76.8 172.8-172.8S480 172.8 384 172.8 211.2 249.6 211.2 339.2 288 512 384 512zM44.8 896c6.4-153.6 102.4-275.2 230.4-320C185.6 531.2 128 441.6 128 339.2c0-140.8 115.2-256 256-256s256 115.2 256 256c0 102.4-57.6 192-147.2 230.4 128 44.8 224 172.8 230.4 320h-70.4c-12.8-147.2-128-268.8-275.2-268.8s-256 128-268.8 275.2h-64zM697.6 556.8c128 0 230.4 121.6 236.8 268.8h57.6c-6.4-192-134.4-339.2-294.4-339.2" p-id="4325"></path><path d="M633.6 185.6c19.2-6.4 44.8-12.8 64-12.8 83.2 0 153.6 70.4 153.6 147.2s-70.4 147.2-153.6 147.2v83.2C832 550.4 940.8 448 940.8 320S832 83.2 697.6 83.2c-38.4 0-70.4 6.4-102.4 19.2l38.4 83.2z" p-id="4326"></path></svg>