<?xml version="1.0" standalone="no"?><!DOCTYPE svg PUBLIC "-//W3C//DTD SVG 1.1//EN" "http://www.w3.org/Graphics/SVG/1.1/DTD/svg11.dtd"><svg t="1563775010959" class="icon" viewBox="0 0 1024 1024" version="1.1" xmlns="http://www.w3.org/2000/svg" p-id="4269" xmlns:xlink="http://www.w3.org/1999/xlink" width="128" height="128"><defs><style type="text/css"></style></defs><path d="M512.028 961.744c-11.759 0-23.521-3.921-33.067-11.758-72.063-59.103-340.217-338.411-340.217-515.702C138.744 228.446 306.189 61 512.028 61c205.838 0 373.279 167.446 373.279 373.284 0 177.291-268.253 456.6-340.212 515.702-9.648 7.837-21.308 11.758-33.067 11.758z m0-844.458c-174.783 0-317 142.215-317 316.999 0 144.931 237.095 403.034 317 469.968 79.9-67.037 316.999-325.037 316.999-469.968 0-174.784-142.22-316.999-316.999-316.999z m0 0" p-id="4270"></path><path d="M514.943 250.256c-82.618 0-149.559 66.938-149.559 149.553 0 82.618 66.94 149.553 149.559 149.553 82.614 0 149.554-66.935 149.554-149.553 0-82.517-66.939-149.553-149.554-149.553z m0 253.176c-57.188 0-103.525-46.332-103.525-103.52 0-57.193 46.337-103.525 103.525-103.525s103.521 46.332 103.521 103.525c0 57.085-46.333 103.52-103.521 103.52z m0 0" p-id="4271"></path></svg>