<?xml version="1.0" standalone="no"?><!DOCTYPE svg PUBLIC "-//W3C//DTD SVG 1.1//EN" "http://www.w3.org/Graphics/SVG/1.1/DTD/svg11.dtd"><svg t="1557473782887" class="icon" style="" viewBox="0 0 1024 1024" version="1.1" xmlns="http://www.w3.org/2000/svg" p-id="3998" xmlns:xlink="http://www.w3.org/1999/xlink" width="128" height="128"><defs><style type="text/css"></style></defs><path d="M582.13376 667.693056l37.517312-9.504768c-8.671232-46.026752-19.509248-92.049408-32.516096-138.078208l-35.0208 8.50944c11.6736 40.35584 21.680128 86.714368 30.019584 139.073536zM275.687424 637.548544c23.867392-36.012032 38.834176-62.12608 60.327936-117.846016l0.129024 224.59392 37.412864-0.079872v-244.1216c15.802368 23.6032 25.372672 40.347648 36.964352 60.710912l34.871296-23.8592-44.26752-73.525248-27.568128 19.544064V434.56512h65.69984v-37.543936l-65.69984-0.14336 0.14336-117.178368H336.01536l0.018432 117.321728H270.31552v37.543936l65.378304 0.262144c-13.944832 49.819648-47.386624 105.40032-78.702592 155.930624l18.696192 46.790656zM716.158976 453.339136l-206.505984 0.21504 0.004096 37.326848 206.483456 0.23552 0.018432-37.777408zM461.901824 545.298432c13.338624 41.357312 25.513984 86.882304 36.519936 136.577024l37.019648-11.010048c-13.34272-53.358592-26.349568-98.54976-39.020544-135.573504l-34.51904 10.006528z" p-id="3999"></path><path d="M453.339136 748.992512h319.117312v-42.235904h-93.80864c17.010688-45.1072 34.144256-109.369344 56.492032-179.74272l-40.51968-11.507712c-19.349504 75.378688-59.850752 195.9424-59.850752 195.9424h-181.430272v37.543936zM626.864128 279.701504l-43.6224-0.12288c-37.531648 65.019904-84.045824 120.434688-146.079744 167.460864 11.005952 10.344448 22.55872 21.1456 30.564352 31.809536 57.30304-49.678336 126.134272-129.929216 137.27744-155.865088 15.710208 25.319424 101.380096 114.200576 160.739328 153.741312 9.336832-12.668928 15.601664-26.0096 24.604672-36.012032-65.37216-38.68672-128.892928-105.373696-163.483648-161.011712zM45.056 472.111104h145.47968v37.543936H45.056v-37.543936zM833.46432 472.111104H978.944v37.543936h-145.47968v-37.543936z" p-id="4000"></path><path d="M45.056 45.056v351.967232h37.543936V82.599936h858.802176v309.731328H978.944V45.056H45.056zM941.400064 941.400064H82.599936V598.818816H45.056V978.944h933.888V598.818816h-37.543936v342.581248z" p-id="4001"></path></svg>