<?xml version="1.0" standalone="no"?><!DOCTYPE svg PUBLIC "-//W3C//DTD SVG 1.1//EN" "http://www.w3.org/Graphics/SVG/1.1/DTD/svg11.dtd"><svg t="1576136135198" class="icon" viewBox="0 0 1024 1024" version="1.1" xmlns="http://www.w3.org/2000/svg" p-id="3637" xmlns:xlink="http://www.w3.org/1999/xlink" width="48" height="48"><defs><style type="text/css"></style></defs><path d="M512.363789 1024l-14.416842-6.117053a866.438737 866.438737 0 0 1-217.734736-134.736842A983.147789 983.147789 0 0 1 104.542316 687.454316L98.074947 678.453895V78.470737l42.819369 8.623158a467.806316 467.806316 0 0 0 218.489263 0 315.284211 315.284211 0 0 0 128.134737-64.673684L511.285895 0l24.46821 21.234526A389.066105 389.066105 0 0 0 696.306526 86.743579a444.092632 444.092632 0 0 0 185.936842 11.15621l43.573895-9.350736v588.126315l-4.688842 8.272843a678.750316 678.750316 0 0 1-168.690526 198.925473 1054.72 1054.72 0 0 1-225.684211 133.551158z m-342.231578-367.858526a909.096421 909.096421 0 0 0 156.591157 172.463158 794.947368 794.947368 0 0 0 185.344 116.978526 971.398737 971.398737 0 0 0 195.799579-118.056421 603.136 603.136 0 0 0 146.135579-169.768421V174.565053A584.757895 584.757895 0 0 1 680.138105 156.941474 524.368842 524.368842 0 0 1 513.441684 94.315789a429.056 429.056 0 0 1-133.901473 62.652632 496.316632 496.316632 0 0 1-209.488843 7.895579z" p-id="3638"></path><path d="M429.931789 269.473684a26.624 26.624 0 0 1 9.350737 36.001684 533.557895 533.557895 0 0 1-35.974737 84.938106v317.925052a26.650947 26.650947 0 1 1-53.274947-1.805473v-236.463158c-10.078316 12.961684-20.533895 25.546105-31.690105 38.157473a23.04 23.04 0 0 1-35.974737 0q-12.961684-16.572632 7.194947-44.274526l9.350737-11.883789a550.103579 550.103579 0 0 0 89.977263-166.642527 27.755789 27.755789 0 0 1 41.040842-15.952842z m68.742737 18.863158h168.798316a35.974737 35.974737 0 0 1 36.001684 35.974737v97.549474a35.974737 35.974737 0 0 1-36.001684 35.974736h-59.28421v39.585685h110.48421a25.573053 25.573053 0 1 1 0 51.2H653.190737a387.664842 387.664842 0 0 0 84.587789 101.133473 22.986105 22.986105 0 0 1 7.922527 13.689264 28.052211 28.052211 0 0 1-13.689264 26.624 24.468211 24.468211 0 0 1-30.935578-2.15579 529.623579 529.623579 0 0 1-89.626948-138.940632h-3.610947v158.369685a25.546105 25.546105 0 1 1-51.2 0v-158.450527h-3.961263a510.410105 510.410105 0 0 1-97.89979 147.941053 24.495158 24.495158 0 0 1-37.726316-9.728 33.818947 33.818947 0 0 1 10.078316-36.001684 347.432421 347.432421 0 0 0 84.938105-101.133474H451.085474a25.573053 25.573053 0 0 1 0-51.2h105.903158v-39.504842h-58.314106a36.028632 36.028632 0 0 1-36.001684-35.974737v-99.354947a36.055579 36.055579 0 0 1 36.001684-36.001684zM653.190737 408.872421V336.842105h-140.126316v71.976421z" p-id="3639"></path></svg>