<?xml version="1.0" standalone="no"?><!DOCTYPE svg PUBLIC "-//W3C//DTD SVG 1.1//EN" "http://www.w3.org/Graphics/SVG/1.1/DTD/svg11.dtd"><svg t="1563859768837" class="icon" viewBox="0 0 1024 1024" version="1.1" xmlns="http://www.w3.org/2000/svg" p-id="1201" id="mx_n_1563859768843" xmlns:xlink="http://www.w3.org/1999/xlink" width="200" height="200"><defs><style type="text/css"></style></defs><path d="M512 0C230.4 0 0 230.4 0 512s230.4 512 512 512 512-230.4 512-512-230.4-512-512-512z m275.2 198.4h6.4c6.4 0 6.4-6.4 6.4-6.4 0-6.4-6.4-12.8-6.4-19.2 12.8 19.2 12.8 25.6 19.2 32h-6.4s-6.4 0-6.4 6.4l-12.8-12.8z m-582.4-32h6.4v6.4h6.4v6.4s0 6.4 6.4 6.4c-64 57.6-89.6 83.2-108.8 96 19.2-44.8 51.2-83.2 89.6-115.2zM51.2 512c0-32 6.4-64 12.8-96h12.8c-12.8 12.8-12.8 19.2-12.8 32s0 32 6.4 44.8v6.4c44.8 32 83.2 76.8 102.4 128-19.2 25.6-25.6 51.2-19.2 76.8 6.4 19.2 25.6 38.4 44.8 44.8 0 6.4 0 12.8 6.4 19.2 19.2 25.6 51.2 38.4 76.8 51.2 12.8 57.6 44.8 102.4 96 128C179.2 896 44.8 716.8 51.2 512z m870.4 185.6c0 12.8-6.4 19.2-6.4 32-12.8 19.2-19.2 38.4-32 57.6-89.6 115.2-224 185.6-371.2 185.6-19.2 0-38.4 0-57.6-6.4l-19.2-6.4c-6.4-6.4-6.4-6.4-6.4-12.8h6.4s6.4 0 6.4-6.4v-6.4c6.4 0 12.8-6.4 19.2-6.4h12.8l6.4-6.4v-6.4-32c51.2-32 57.6-38.4 51.2-57.6 32-32 32-38.4 32-57.6v-6.4c0-6.4 0-6.4-6.4-6.4-44.8 0-83.2-19.2-115.2-44.8h-6.4c-12.8 0-25.6 6.4-32 12.8l6.4-6.4v-6.4c-19.2-38.4-25.6-38.4-38.4-38.4-19.2 0-19.2 0-25.6-25.6l-12.8-19.2c-19.2-12.8-38.4-25.6-64-32H256c-12.8-6.4-19.2-12.8-32-19.2h-6.4c-6.4 6.4-12.8 6.4-12.8 6.4-12.8 0-25.6-6.4-38.4-19.2-6.4-12.8-12.8-25.6-25.6-32v-6.4-19.2c6.4-6.4 12.8-12.8 12.8-19.2v-6.4h-6.4c-12.8 0-19.2 6.4-25.6 12.8h-6.4c0-12.8-6.4-25.6 0-44.8 0-6.4 6.4-6.4 12.8-32 12.8 0 25.6 0 38.4 12.8h6.4s6.4 0 6.4-6.4v6.4l6.4 6.4H192v51.2s0 6.4 6.4 6.4h0c0-6.4-6.4-12.8-19.2-12.8h-12.8s-6.4 0-6.4 6.4v6.4c12.8 6.4 19.2 12.8 32 12.8 6.4 12.8 12.8 12.8 25.6 19.2h6.4l6.4-6.4s6.4-6.4 0-12.8l-6.4-6.4c-6.4-6.4-6.4-12.8-12.8-12.8l19.2-19.2V448c0-6.4 0-6.4 6.4-12.8 6.4 0 12.8-6.4 12.8-6.4 6.4 0 6.4 0 12.8-6.4h25.6c19.2-25.6 19.2-25.6 25.6-32 38.4-19.2 83.2-32 121.6-38.4l6.4-6.4s0-6.4-6.4-6.4h-6.4l6.4-6.4v-6.4H448v6.4c6.4 6.4 12.8 6.4 12.8 12.8 0 0 0 6.4 6.4 6.4h6.4l12.8-12.8v-6.4s0-6.4-6.4-6.4l25.6-25.6v-6.4l-6.4-6.4h-12.8V268.8c0-6.4 0-6.4 6.4-12.8v-6.4s0-6.4-6.4-6.4h-32c-12.8-19.2-12.8-19.2-25.6-25.6-6.4 0-6.4 0-6.4 6.4v6.4h-6.4-6.4c-6.4 12.8-19.2 25.6-32 32-6.4 12.8-12.8 19.2-19.2 25.6-6.4-12.8-12.8-25.6-12.8-44.8l32-12.8c25.6-19.2 38.4-25.6 44.8-25.6h6.4v6.4c0 6.4 0 6.4 6.4 6.4h19.2l6.4 12.8 6.4 6.4s6.4 0 6.4-6.4c6.4-19.2 12.8-19.2 12.8-19.2l6.4 6.4h12.8c6.4-6.4 12.8-12.8 12.8-19.2V192H512v-6.4-6.4l-6.4-6.4c0-6.4 0-6.4-6.4-6.4 0 0-6.4 0-6.4-6.4h-6.4v-6.4s0-6.4-6.4-6.4h-6.4-12.8v-6.4-6.4V128v-6.4s0-6.4-6.4-6.4h6.4c6.4 0 6.4-6.4 6.4-12.8 0 0 0-6.4-6.4-6.4h-6.4c-12.8 6.4-19.2 6.4-25.6 12.8-6.4 0-6.4 6.4-6.4 6.4 0 6.4 6.4 6.4 6.4 6.4h0l-6.4 6.4h-6.4v-6.4l-6.4-6.4h-6.4-6.4c-6.4 0-12.8 6.4-12.8 6.4v12.8s0 6.4 6.4 6.4H384c6.4-6.4 0-12.8 0-12.8h-6.4l-6.4 6.4s-6.4 6.4-6.4 12.8v6.4h-6.4l-6.4 6.4v6.4c0 6.4 6.4 6.4 6.4 6.4h-6.4-6.4v-6.4s0-6.4-6.4-6.4h-6.4v-6.4l-6.4-6.4c-6.4 0-6.4 0-12.8-6.4h-6.4-6.4v-6.4V128s0-6.4-6.4-6.4c12.8 6.4 6.4 6.4 0 6.4v-6.4-6.4s-6.4-6.4-6.4 0c-6.4 0-6.4 6.4-19.2 6.4C339.2 70.4 422.4 44.8 512 44.8c83.2 0 166.4 19.2 236.8 64-6.4 0-12.8-6.4-19.2-6.4h-6.4l-6.4 6.4-6.4 6.4v6.4c12.8 12.8 19.2 25.6 25.6 38.4 0 12.8 0 19.2 25.6 38.4h12.8c0 6.4 0 6.4 12.8 19.2v12.8c-6.4 0-6.4-6.4-12.8-6.4l-12.8-19.2s-6.4-6.4-6.4 0l-6.4 6.4v6.4c0 6.4 0 6.4 6.4 12.8-6.4 6.4-12.8 6.4-12.8 12.8v6.4h6.4l-19.2 6.4h6.4l-6.4 6.4 6.4 6.4 6.4-6.4c0-6.4 0-6.4 6.4-6.4v6.4l19.2 6.4v6.4h6.4c6.4 0 6.4 0 19.2 19.2h-32s-6.4 0-6.4 6.4v6.4c0 6.4 6.4 12.8 12.8 19.2 0 6.4 6.4 6.4 6.4 12.8v6.4l6.4 12.8v6.4l6.4 6.4h6.4c19.2-6.4 32-12.8 51.2-19.2 6.4 0 6.4-6.4 6.4-6.4 0-6.4-6.4-12.8-6.4-19.2-12.8-6.4-12.8-12.8-12.8-19.2 0-6.4 0-6.4 6.4-12.8h6.4c12.8 19.2 19.2 19.2 32 19.2h6.4s0 6.4 6.4 6.4c0 0 6.4 6.4 6.4 0 0 0 6.4-6.4 0-6.4 0 0 0-6.4-6.4-6.4l19.2 12.8h6.4s6.4 0 6.4-6.4v-6.4h6.4c6.4 6.4 6.4 12.8 12.8 25.6-6.4 0-12.8 6.4-19.2 6.4l-6.4 6.4v12.8c-12.8-6.4-19.2-12.8-32-25.6h-6.4c-19.2 12.8-44.8 19.2-64 25.6 0 0-6.4 0-6.4 6.4v12.8l-6.4-6.4s-6.4 0-6.4 6.4c-12.8 44.8-38.4 83.2-64 121.6v6.4l12.8 6.4c6.4 44.8 6.4 44.8 0 57.6V576c64 57.6 64 57.6 76.8 64h6.4l6.4-12.8c19.2-6.4 38.4-6.4 51.2-12.8 12.8-6.4 19.2-6.4 32-6.4h6.4c6.4 32 6.4 64 0 89.6zM300.8 326.4C294.4 320 294.4 320 288 320h-6.4s0-6.4-6.4-6.4c0 0-6.4 0-6.4-6.4 6.4-6.4 12.8-6.4 19.2 0 0 12.8 6.4 19.2 12.8 32l-6.4 6.4h-12.8c0-6.4 0-6.4 6.4-12.8l6.4-6.4c6.4 6.4 6.4 0 6.4 0zM384 172.8c12.8 0 19.2-6.4 25.6-12.8-6.4 19.2-6.4 19.2-12.8 19.2s-6.4 0-12.8-6.4c0 6.4 0 6.4 0 0z m32-19.2z m19.2 12.8c0 6.4 0 6.4 6.4 6.4-6.4 0-6.4 6.4-12.8 6.4 6.4-6.4 6.4-6.4 6.4-12.8v-12.8s0-6.4-6.4-6.4h6.4v19.2z m25.6 19.2l-6.4-6.4h6.4c6.4 0 6.4 0 12.8 6.4-12.8 0-19.2 6.4-19.2 12.8H448l6.4-6.4c6.4 0 6.4 0 6.4-6.4z m300.8 64c-6.4-6.4 0-6.4 0 0zM281.6 537.6v6.4l-12.8 12.8h-6.4H256l-6.4-12.8h-6.4c-6.4 0-6.4 0-6.4-6.4 0-12.8 0-19.2 12.8-25.6H256l12.8 6.4 12.8 19.2z m364.8-364.8c-19.2 19.2-38.4 38.4-64 51.2v6.4l-6.4 6.4c-6.4 0-12.8 0-12.8-6.4 0 0-6.4 0-6.4-6.4l-6.4-6.4v-6.4c0-6.4-6.4-12.8-6.4-19.2 0-6.4 6.4-6.4 6.4-12.8l-6.4-6.4v-6.4-6.4s0-6.4-6.4-6.4c0-6.4-6.4-6.4-6.4-12.8h-6.4-6.4H512h-6.4c-6.4 6.4-12.8 6.4-25.6 12.8h-6.4-6.4c-6.4 0-6.4-6.4-6.4-6.4 0-6.4 0-6.4 6.4-6.4s12.8 0 25.6-12.8c0-6.4-6.4-6.4-6.4-12.8v-6.4h32c6.4 0 6.4 0 12.8 6.4 0 0 0-6.4 6.4-6.4h6.4c6.4 0 6.4 6.4 12.8 6.4h12.8l6.4-6.4h12.8s0-6.4 6.4-6.4h12.8l12.8 6.4 6.4 6.4h6.4l6.4 6.4c-12.8-6.4 0 6.4 6.4 12.8v25.6c6.4 12.8 6.4 12.8 0 12.8z m44.8 19.2c0 12.8-6.4 19.2-25.6 19.2h-6.4l-6.4-6.4v-6.4s0-6.4 6.4-6.4 12.8-6.4 19.2-6.4h19.2c-6.4 0-6.4 0-6.4 6.4z" p-id="1202" data-spm-anchor-id="a313x.7781069.0.i0" class="" fill=""></path></svg>