<?xml version="1.0" standalone="no"?><!DOCTYPE svg PUBLIC "-//W3C//DTD SVG 1.1//EN" "http://www.w3.org/Graphics/SVG/1.1/DTD/svg11.dtd"><svg t="1563266596907" class="icon" viewBox="0 0 1024 1024" version="1.1" xmlns="http://www.w3.org/2000/svg" p-id="5583" xmlns:xlink="http://www.w3.org/1999/xlink" width="48" height="48"><defs><style type="text/css"></style></defs><path d="M940.927491 941.695482c-4.980431 4.982478-11.500938 7.463995-18.022469 7.463995s-13.021571-2.481518-18.004049-7.463995L663.812079 700.607612c-64.580854 55.745628-145.917324 86.425372-232.095056 86.425372-196.359156 0-356.107487-159.748331-356.107487-356.085998 0-196.359156 159.748331-356.107487 356.107487-356.107487 196.337667 0 356.087021 159.748331 356.087021 356.107487 0 86.903256-31.232328 168.864966-87.899956 233.714949l241.023402 241.004983C950.875051 915.623687 950.875051 931.747923 940.927491 941.695482zM737.696834 430.946986c0-168.719656-137.261177-305.97981-305.978786-305.97981-168.719656 0-305.97981 137.25913-305.97981 305.97981 0 168.720679 137.260154 305.968553 305.97981 305.968553 81.733513 0 158.565389-31.833009 216.356606-89.623203C705.863824 589.491908 737.696834 512.660032 737.696834 430.946986zM422.124552 235.678674c-103.143125 16.633842-178.002067 104.545054-178.002067 209.03485 0 8.826016 0.747014 18.316158 2.387373 29.903054 1.64036 11.628852-6.479575 22.385846-18.107403 24.026206-0.9967 0.145309-1.9934 0.207731-2.990101 0.207731-10.42442 0-19.519566-7.684006-21.014616-18.293645-1.910513-13.601786-2.802836-24.981974-2.802836-35.842323 0-125.484969 89.893356-231.046167 213.759455-251.022127 11.504008-1.952468 22.51069 6.011924 24.379247 17.59882C441.602162 222.898603 433.710424 233.810117 422.124552 235.678674z" p-id="5584"></path></svg>