<?xml version="1.0" standalone="no"?><!DOCTYPE svg PUBLIC "-//W3C//DTD SVG 1.1//EN" "http://www.w3.org/Graphics/SVG/1.1/DTD/svg11.dtd"><svg t="1563764287373" class="icon" viewBox="0 0 1024 1024" version="1.1" xmlns="http://www.w3.org/2000/svg" p-id="31656" xmlns:xlink="http://www.w3.org/1999/xlink" width="48" height="48"><defs><style type="text/css"></style></defs><path d="M661.459 511.988c0-81.999-67.09-149.089-149.089-149.089s-149.089 67.09-149.089 149.089c0 70.071 48.454 128.961 114.053 144.617-1.491 3.727-2.237 7.454-2.237 11.928v253.452c0 20.872 16.4 37.272 37.272 37.272s37.272-16.4 37.272-37.272V668.533c0-3.728-0.747-8.201-2.237-11.928 65.601-15.654 114.055-74.546 114.055-144.617zM512.37 593.986c-45.472 0-81.999-36.528-81.999-81.999s36.528-81.999 81.999-81.999 81.999 36.528 81.999 81.999-36.528 81.999-81.999 81.999z" p-id="31657"></path><path d="M512.37 64.719c-246.743 0-447.269 200.524-447.269 447.268 0 149.835 73.799 282.525 186.361 363.777l43.238-60.38c-93.926-67.837-155.054-178.909-155.054-303.397 0-205.744 166.98-372.724 372.724-372.724s372.724 166.979 372.724 372.724c0 124.488-61.127 235.561-155.797 302.651l43.236 60.381c113.308-81.254 186.362-213.942 186.362-363.777 0.747-245.998-199.781-446.524-446.524-446.524h-0.001v0.001z" p-id="31658"></path><path d="M512.37 213.808c-164.743 0-298.18 133.435-298.18 298.18a297.182 297.182 0 0 0 124.489 242.27l43.236-60.38c-56.654-41-93.182-107.346-93.182-181.89 0-123.745 99.89-223.634 223.634-223.634 123.745 0 223.634 99.889 223.634 223.634 0 74.545-36.528 140.89-93.18 181.89l43.236 60.38a297.174 297.174 0 0 0 124.488-242.27c0-164.743-133.435-298.18-298.18-298.18h0.005z" p-id="31659"></path></svg>