<?xml version="1.0" standalone="no"?><!DOCTYPE svg PUBLIC "-//W3C//DTD SVG 1.1//EN" "http://www.w3.org/Graphics/SVG/1.1/DTD/svg11.dtd"><svg t="1563266860067" class="icon" viewBox="0 0 1024 1024" version="1.1" xmlns="http://www.w3.org/2000/svg" p-id="14630" xmlns:xlink="http://www.w3.org/1999/xlink" width="48" height="48"><defs><style type="text/css"></style></defs><path d="M783.4112 321.097143L877.765486 219.428571a32.914286 32.914286 0 0 0 8.777143-22.674285 32.914286 32.914286 0 0 0-8.777143-25.6 28.525714 28.525714 0 0 0-42.422857 0l-94.354286 103.862857a365.714286 365.714286 0 0 1 42.422857 46.08z m-241.371429-136.045714V32.182857a31.451429 31.451429 0 0 0-8.777142-22.674286A29.988571 29.988571 0 0 0 512.0512 0a29.988571 29.988571 0 0 0-20.48 9.508571 31.451429 31.451429 0 0 0-8.777143 22.674286v152.868572H512.0512zM245.8112 315.245714a357.668571 357.668571 0 0 1 42.422857-45.348571L191.685486 164.571429a27.062857 27.062857 0 0 0-41.691429 0 33.645714 33.645714 0 0 0 0 45.348571zM877.765486 959.634286h-73.142857V571.245714a310.125714 310.125714 0 0 0-292.571429-323.291428 310.125714 310.125714 0 0 0-292.571429 323.291428v388.388572H146.336914a30.72 30.72 0 0 0-29.257143 32.182857 30.72 30.72 0 0 0 29.257143 32.182857h731.428572a29.988571 29.988571 0 0 0 26.331428-16.091429 37.302857 37.302857 0 0 0 0-32.914285 29.257143 29.257143 0 0 0-26.331428-15.36z m-128 0H275.799771v-365.714286C280.188343 403.748571 383.319771 315.245714 512.0512 315.245714s231.862857 92.16 234.057143 277.942857z m246.491428-431.542857h-131.657143a381.074286 381.074286 0 0 1 0 40.228571v24.868571h130.194286a32.914286 32.914286 0 0 0 0-65.097142z m-838.948571 40.228571a381.074286 381.074286 0 0 1 0-40.228571H29.308343a30.72 30.72 0 0 0-29.257143 32.182857 34.377143 34.377143 0 0 0 8.777143 24.868571 28.525714 28.525714 0 0 0 20.48 9.508572h128z" p-id="14631"></path><path d="M601.285486 571.245714H495.228343l63.634286-73.142857a32.914286 32.914286 0 0 0 8.777142-22.674286 34.377143 34.377143 0 0 0-8.777142-23.405714 27.794286 27.794286 0 0 0-41.691429 0L405.994057 577.097143a32.914286 32.914286 0 0 0-8.777143 22.674286 34.377143 34.377143 0 0 0 8.777143 23.405714 29.257143 29.257143 0 0 0 21.211429 8.777143h106.057143l-64.365715 73.142857a35.84 35.84 0 0 0 0 45.348571 27.062857 27.062857 0 0 0 41.691429 0l111.908571-124.342857a36.571429 36.571429 0 0 0 8.777143-22.674286 38.765714 38.765714 0 0 0-8.777143-23.405714 29.257143 29.257143 0 0 0-21.211428-8.777143z" p-id="14632"></path></svg>