<?xml version="1.0" standalone="no"?><!DOCTYPE svg PUBLIC "-//W3C//DTD SVG 1.1//EN" "http://www.w3.org/Graphics/SVG/1.1/DTD/svg11.dtd"><svg t="1577470520011" class="icon" viewBox="0 0 1536 1024" version="1.1" xmlns="http://www.w3.org/2000/svg" p-id="2857" xmlns:xlink="http://www.w3.org/1999/xlink" width="300" height="200"><defs><style type="text/css"></style></defs><path d="M1287.12 668.272c107.632 0 145.696 116.736 145.696 116.736 74.304 0 100.208 6.192 100.208-37.6v-110.464h-1139.2c-11.472-2.112-28.976-9.488-30-37.12l-0.352-2.352V204.96h-119.136c-20.384 0-47.008 13.616-59.024 30.208L24.832 458.384C12.96 474.88 3.072 505.488 3.072 526.176V747.52a37.392 37.392 0 0 0 37.168 37.472h130.704a152.08 152.08 0 0 1 144.032-105.216c67.072 0 123.904 44.192 143.824 105.216h674.816c-0.464 0.016 8.608-116.72 153.504-116.72M73.984 538.528v-6.096c0-20.592 9.632-51.312 21.344-68.208l120.528-172.384c11.632-17.008 35.28-30.72 52.576-30.72 17.152 0 31.232 16.688 31.232 37.376v240.032a37.52 37.52 0 0 1-37.328 37.568h-150.88a37.52 37.52 0 0 1-37.472-37.568z m122.112 291.696a119.2 119.2 0 0 0 118.528 119.536c65.072 0 118.416-53.664 118.416-119.536 0-65.808-53.2-119.52-118.416-119.52a119.2 119.2 0 0 0-118.528 119.52z m39.376 0a79.872 79.872 0 0 1 79.264-79.936c43.568 0 79.056 36.096 79.056 79.936 0 43.968-35.536 80.016-79.056 80.016a79.872 79.872 0 0 1-79.264-80.016zM452 602.672h1007.568c28.256 0 51.184-16.24 51.184-36.096V110.288c0-19.808-22.944-36.032-51.184-36.032H452c-28.16 0-51.088 16.224-51.088 36.032v456.336c-0.016 19.76 22.928 36.048 51.088 36.048z"  p-id="2858"></path><path d="M615.728 672.256l-135.52 258.144h67.744l67.776-258.144z m-14.64 258.144l14.656-258.16 29.328 258.16h-43.984z m85.808 0l-71.168-258.16 124.624 258.16h-53.456z"  p-id="2859"></path><path d="M834.256 672.256L698.624 930.4h67.792l67.84-258.144z m-14.64 258.144l14.64-258.16 29.232 258.16h-43.872z m85.808 0l-71.168-258.16 124.56 258.16h-53.392z m372.08 7.28a123.12 123.12 0 0 1-123.024-123.008c0-67.68 55.232-123.024 123.024-123.024 67.776 0 122.976 55.344 122.976 123.024a123.152 123.152 0 0 1-122.976 123.008z m0-202.144a79.072 79.072 0 0 0-79.088 79.024 79.04 79.04 0 0 0 79.008 79.072h0.08a79.04 79.04 0 0 0 0-158.096z"  p-id="2860"></path><path d="M442.464 409.6h182.48V448H442.464v-38.4z m0-70.4h182.48v38.4H442.464v-38.4z m0-70.4h182.48v38.4H442.464v-38.4z m0-70.4h182.48v38.4H442.464v-38.4z"  p-id="2861"></path></svg>
