<?xml version="1.0" standalone="no"?><!DOCTYPE svg PUBLIC "-//W3C//DTD SVG 1.1//EN" "http://www.w3.org/Graphics/SVG/1.1/DTD/svg11.dtd"><svg t="1571730092911" class="icon" viewBox="0 0 1024 1024" version="1.1" xmlns="http://www.w3.org/2000/svg" p-id="9414" xmlns:xlink="http://www.w3.org/1999/xlink" width="48" height="48"><defs><style type="text/css"></style></defs><path d="M907.622968 956.320575l0-165.42768 50.963719 0 0 165.42768L907.622968 956.320575zM907.622968 678.299537l50.963719 0 0 52.77804-50.963719 0L907.622968 678.299537zM907.622968 565.706179l50.963719 0 0 52.834322-50.963719 0L907.622968 565.706179zM568.13602 64.037479l388.80212 0 0 388.772444L568.13602 452.809923 568.13602 64.037479zM617.946472 403.055752l289.069675 0L907.016147 114.012683 617.946472 114.012683 617.946472 403.055752zM678.86082 176.796612l163.613358 0 0 163.584706L678.86082 340.381317 678.86082 176.796612zM61.466422 570.709123l388.79905 0 0 388.744815L61.466422 959.453938 61.466422 570.709123zM111.275851 909.752979l289.070698 0L400.346549 620.683305 111.275851 620.683305 111.275851 909.752979zM174.774047 680.884408l163.613358 0 0 163.665547L174.774047 844.549955 174.774047 680.884408zM61.466422 64.037479l388.79905 0 0 388.772444L61.466422 452.809923 61.466422 64.037479zM111.275851 403.055752l289.070698 0L400.346549 114.012683 111.275851 114.012683 111.275851 403.055752zM172.191222 176.796612l168.725796 0 0 163.584706L172.191222 340.381317 172.191222 176.796612zM733.399971 618.539478 569.841871 618.539478l0-45.797046 163.5581 0L733.399971 618.539478zM620.80559 731.077577 569.841871 731.077577l0-52.77804 50.963719 0L620.80559 731.077577zM620.80559 843.727217 569.841871 843.727217l0-52.834322 50.963719 0L620.80559 843.727217zM620.80559 956.320575 569.841871 956.320575l0-52.834322 50.963719 0L620.80559 956.320575zM677.10278 731.077577l-50.963719 0 0-52.77804 50.963719 0L677.10278 731.077577zM677.10278 787.430026l-50.963719 0 0-52.834322 50.963719 0L677.10278 787.430026zM677.10278 899.968126l-50.963719 0 0-52.77804 50.963719 0L677.10278 899.968126zM733.399971 899.968126 682.436252 899.968126l0-52.77804 50.964742 0L733.400994 899.968126zM733.399971 956.320575 682.436252 956.320575l0-52.834322 50.964742 0L733.400994 956.320575zM789.696138 731.077577l0 56.352449-50.963719 0 0-56.352449 0-52.77804 50.963719 0L789.696138 731.077577zM845.993329 618.539478l-50.963719 0 0-52.834322 50.963719 0L845.993329 618.539478zM845.993329 956.320575l-50.963719 0 0-165.42768 50.963719 0L845.993329 956.320575zM902.289496 674.835645l-50.963719 0 0-52.833299 50.963719 0L902.289496 674.835645zM902.289496 731.077577l-50.963719 0 0-52.77804 50.963719 0L902.289496 731.077577zM902.289496 843.727217l-50.963719 0 0-52.834322 50.963719 0L902.289496 843.727217zM902.289496 956.320575l-50.963719 0 0-52.834322 50.963719 0L902.289496 956.320575z" p-id="9415"></path></svg>