<?xml version="1.0" standalone="no"?><!DOCTYPE svg PUBLIC "-//W3C//DTD SVG 1.1//EN" "http://www.w3.org/Graphics/SVG/1.1/DTD/svg11.dtd"><svg t="1563266669496" class="icon" viewBox="0 0 1024 1024" version="1.1" xmlns="http://www.w3.org/2000/svg" p-id="8676" xmlns:xlink="http://www.w3.org/1999/xlink" width="48" height="48"><defs><style type="text/css"></style></defs><path d="M822.717 948.007c-37.308 0-70.719-14.477-94.663-40.65l-208.816-243.896-0.557 0.557c-75.174 41.763-146.449 50.116-161.484 50.116-34.524 0-67.934-13.364-95.22-38.422l-123.062-125.289c-62.366-61.81-67.934-168.166-14.477-270.625l17.262 17.262 114.709 114.152c25.615 21.717 54.014 33.967 82.97 33.967 64.593 0 115.267-50.672 115.267-115.267 0-30.069-11.694-57.912-35.081-80.742l-111.925-116.38-20.047-20.047c43.991-22.83 91.322-35.638 132.529-35.638 54.014 0 99.675 18.375 131.414 51.786l123.062 125.289c68.491 75.174 70.162 158.143 3.898 253.92l-0.557 0.557 238.328 207.702c25.615 23.944 40.65 59.025 41.206 95.22 1.113 75.174-59.582 136.427-134.755 136.427zM523.137 613.345c6.125 0 12.807 4.455 17.262 8.909l217.168 254.477c15.592 17.819 38.422 27.842 64.593 27.842 50.672 0 91.879-41.206 92.436-91.879 0-26.171-10.023-49.002-27.842-65.151l-251.136-213.827c-6.125-3.898-8.909-9.466-8.909-17.262 0-3.898 2.228-8.909 3.898-12.807 65.708-86.311 69.049-153.132 11.694-215.498l-120.278-125.846c-33.411-32.297-74.617-38.979-103.573-38.979-16.149 0-32.297 2.228-52.344 7.239l-1.67 0.557 86.868 87.424c30.626 30.069 47.888 69.606 47.888 110.812 0 89.094-69.606 158.7-158.7 158.7-41.763 0-83.526-17.819-110.812-47.888l-85.196-85.754-0.557 1.67c-19.49 65.708-8.353 124.733 29.513 163.155l118.607 125.289c17.819 17.819 41.206 27.842 64.593 27.842 1.113 0 78.515-5.011 155.359-54.57 1.113-0.557 1.67-1.113 2.785-1.67 3.341-1.67 5.568-2.785 8.353-2.785zM792.091 813.251c0 16.607 13.462 30.069 30.069 30.069s30.069-13.462 30.069-30.069c0-16.607-13.462-30.069-30.069-30.069-16.607 0-30.069 13.462-30.069 30.069z" p-id="8677"></path></svg>