<?xml version="1.0" standalone="no"?><!DOCTYPE svg PUBLIC "-//W3C//DTD SVG 1.1//EN" "http://www.w3.org/Graphics/SVG/1.1/DTD/svg11.dtd"><svg t="1563787295261" class="icon" viewBox="0 0 1024 1024" version="1.1" xmlns="http://www.w3.org/2000/svg" p-id="7179" xmlns:xlink="http://www.w3.org/1999/xlink" width="128" height="128"><defs><style type="text/css"></style></defs><path d="M665.3050880000001 806.7700053333334H309.34630400000003a165.12887466666666 165.12887466666666 0 0 1-165.80607999999998-165.80061866666668c0-92.12177066666666 73.695232-165.81154133333334 165.80607999999998-165.81154133333334h405.3128533333333a91.242496 91.242496 0 0 0 92.11630933333332-92.12177066666666 91.23157333333333 91.23157333333333 0 0 0-92.11630933333332-92.11630933333332H358.694912c-14.625450666666667 43.63605333333333-55.001087999999996 73.68977066666666-104.62276266666666 73.68977066666666-62.636032 0-110.53738666666666-47.90135466666666-110.53738666666666-110.53738666666666 0-62.636032 47.90135466666666-110.53738666666666 110.53738666666666-110.53738666666666 49.621674666666664 0 89.997312 30.059178666666664 104.62276266666666 73.695232h355.95878400000004a165.12341333333333 165.12341333333333 0 0 1 165.80607999999998 165.80607999999998 165.117952 165.117952 0 0 1-165.80607999999998 165.80607999999998H309.34630400000003a91.26980266666666 91.26980266666666 0 0 0-65.39946666666667 26.716842666666665 91.26434133333333 91.26434133333333 0 0 0-26.716842666666665 65.41038933333333 91.22065066666667 91.22065066666667 0 0 0 92.11630933333332 92.11630933333332h355.96424533333334c14.625450666666667-43.63605333333333 54.995626666666666-73.68977066666666 104.61730133333333-73.68977066666666 62.64149333333333 0 110.53738666666666 47.90135466666666 110.53738666666666 110.53738666666666s-47.90135466666666 110.53738666666666-110.53738666666666 110.53738666666666c-49.621674666666664-0.005461333333333334-89.997312-30.06464-104.62276266666666-73.70069333333332z" p-id="7180"></path></svg>